<svg width="16" height="17" viewBox="0 0 16 17" fill="none" xmlns="http://www.w3.org/2000/svg">
<path d="M10.0832 14.5667L4.46654 8.96668C4.39987 8.90002 4.35276 8.82779 4.3252 8.75002C4.2972 8.67224 4.2832 8.5889 4.2832 8.50002C4.2832 8.41113 4.2972 8.32779 4.3252 8.25002C4.35276 8.17224 4.39987 8.10002 4.46654 8.03335L10.0832 2.41668C10.2388 2.26113 10.4332 2.18335 10.6665 2.18335C10.8999 2.18335 11.0999 2.26668 11.2665 2.43335C11.4332 2.60002 11.5165 2.79446 11.5165 3.01668C11.5165 3.23891 11.4332 3.43335 11.2665 3.60002L6.36654 8.50002L11.2665 13.4C11.4221 13.5556 11.4999 13.7471 11.4999 13.9747C11.4999 14.2027 11.4165 14.4 11.2499 14.5667C11.0832 14.7333 10.8888 14.8167 10.6665 14.8167C10.4443 14.8167 10.2499 14.7333 10.0832 14.5667Z" fill="white"/>
</svg>
