<svg width="52" height="52" viewBox="0 0 52 52" fill="none" xmlns="http://www.w3.org/2000/svg">
<g clip-path="url(#clip0_571_477)">
<path d="M25.0734 -5.21014e-05C24.6921 -5.21014e-05 24.4018 0.00211457 24.2978 0.0151146C24.0351 0.0413787 23.7722 0.0652131 23.5091 0.0866146C16.1273 0.749614 9.2091 4.73412 4.8281 10.8593C2.40527 14.2209 0.83022 18.118 0.23693 22.2191C0.0289297 23.6469 0.00292969 24.0694 0.00292969 26.0043C0.00292969 27.9391 0.0289297 28.3638 0.23693 29.7916C1.6496 39.5546 8.60026 47.7576 18.0231 50.7974C19.7109 51.3391 21.4898 51.7118 23.5134 51.9349C24.2999 52.0216 27.7059 52.0216 28.4946 51.9349C31.9851 51.5493 34.9448 50.6848 37.8611 49.1963C38.3096 48.9666 38.3963 48.9059 38.3356 48.8539C38.2923 48.8258 36.3856 46.2691 34.0998 43.1773L29.9419 37.5613L24.7333 29.8523C23.0004 27.273 21.2511 24.7047 19.4856 22.1476C19.4661 22.1433 19.4466 25.5688 19.4358 29.7526C19.4206 37.0759 19.4141 37.3684 19.3231 37.5418C19.2348 37.7449 19.0763 37.9094 18.8768 38.0054C18.7143 38.0856 18.5734 38.1008 17.8043 38.1008H16.9224L16.6884 37.9534C16.5438 37.8628 16.4263 37.7348 16.3483 37.5829L16.2399 37.3533L16.2529 27.1634L16.2681 16.9693L16.4241 16.7699C16.5306 16.6454 16.6582 16.5405 16.8011 16.4601C17.0091 16.3583 17.0914 16.3496 17.9711 16.3496C19.0068 16.3496 19.1801 16.3886 19.4488 16.6833C21.5572 19.8211 23.6481 22.9708 25.7213 26.1321C29.1389 31.3118 32.5586 36.4901 35.9804 41.6671L40.0971 47.9049L40.3051 47.7684C42.2871 46.4515 44.084 44.8753 45.6481 43.0819C48.9236 39.3326 51.0481 34.7181 51.7668 29.7916C51.9748 28.3616 52.0008 27.9413 52.0008 26.0043C52.0008 24.0694 51.9748 23.6469 51.7668 22.2191C50.3541 12.4561 43.4056 4.25311 33.9828 1.21328C32.221 0.653161 30.4068 0.27349 28.5683 0.0801146C27.4049 0.0250516 26.2403 -0.00167858 25.0756 -5.21014e-05H25.0734ZM33.8896 15.6368C34.6414 15.6368 34.7736 15.6476 34.9426 15.7386C35.0636 15.7997 35.1713 15.8842 35.2595 15.9872C35.3476 16.0903 35.4145 16.2097 35.4561 16.3388C35.4951 16.4688 35.5059 19.2963 35.4951 25.6641L35.4821 34.8031L33.8701 32.3331L32.2538 29.8631V23.2201C32.2538 18.9258 32.2754 16.5099 32.3036 16.3951C32.3399 16.2596 32.4034 16.1329 32.4902 16.0226C32.577 15.9124 32.6852 15.8209 32.8084 15.7538C33.0164 15.6454 33.0901 15.6368 33.8918 15.6368H33.8896Z" fill="#272727"/>
</g>
<defs>
<clipPath id="clip0_571_477">
<rect width="52" height="52" fill="white"/>
</clipPath>
</defs>
</svg>
