<svg width="20" height="20" viewBox="0 0 20 20" fill="none" xmlns="http://www.w3.org/2000/svg">
<g clip-path="url(#clip0_571_77)">
<path d="M9.64348 2.69111e-05C9.49681 2.69111e-05 9.38514 0.000860244 9.34514 0.00586024C9.24412 0.0159618 9.143 0.0251289 9.04181 0.0333602C6.20264 0.28836 3.54181 1.82086 1.85681 4.17669C0.924952 5.46964 0.319165 6.96852 0.0909766 8.54586C0.0109766 9.09503 0.000976562 9.25753 0.000976562 10.0017C0.000976562 10.7459 0.0109766 10.9092 0.0909766 11.4584C0.63431 15.2134 3.30764 18.3684 6.93181 19.5375C7.58098 19.7459 8.26514 19.8892 9.04348 19.975C9.34598 20.0084 10.656 20.0084 10.9593 19.975C12.3018 19.8267 13.4401 19.4942 14.5618 18.9217C14.7343 18.8334 14.7676 18.81 14.7443 18.79C14.7276 18.7792 13.9943 17.7959 13.1151 16.6067L11.516 14.4467L9.51264 11.4817C8.84614 10.4897 8.17335 9.50185 7.49431 8.51836C7.48681 8.51669 7.47931 9.83419 7.47514 11.4434C7.46931 14.26 7.46681 14.3725 7.43181 14.4392C7.39784 14.5173 7.33691 14.5806 7.26014 14.6175C7.19764 14.6484 7.14348 14.6542 6.84764 14.6542H6.50848L6.41848 14.5975C6.36284 14.5627 6.31764 14.5134 6.28764 14.455L6.24598 14.3667L6.25098 10.4475L6.25681 6.52669L6.31681 6.45003C6.35778 6.40211 6.40686 6.36177 6.46181 6.33086C6.54181 6.29169 6.57348 6.28836 6.91181 6.28836C7.31014 6.28836 7.37681 6.30336 7.48014 6.41669C8.29109 7.62356 9.09527 8.83497 9.89264 10.0509C11.2071 12.0431 12.5224 14.0347 13.8385 16.0259L15.4218 18.425L15.5018 18.3725C16.2641 17.866 16.9552 17.2598 17.5568 16.57C18.8166 15.128 19.6337 13.3531 19.9101 11.4584C19.9901 10.9084 20.0001 10.7467 20.0001 10.0017C20.0001 9.25753 19.9901 9.09503 19.9101 8.54586C19.3668 4.79086 16.6943 1.63586 13.0701 0.466694C12.3925 0.251263 11.6948 0.105235 10.9876 0.0308602C10.5402 0.00968217 10.0923 -0.000598656 9.64431 2.69111e-05H9.64348ZM13.0343 6.01419C13.3235 6.01419 13.3743 6.01836 13.4393 6.05336C13.4859 6.07686 13.5273 6.10936 13.5612 6.14898C13.5951 6.18861 13.6208 6.23457 13.6368 6.28419C13.6518 6.33419 13.656 7.42169 13.6518 9.87086L13.6468 13.3859L13.0268 12.4359L12.4051 11.4859V8.93086C12.4051 7.27919 12.4135 6.35003 12.4243 6.30586C12.4383 6.25374 12.4627 6.20499 12.4961 6.16259C12.5294 6.12019 12.5711 6.08501 12.6185 6.05919C12.6985 6.01753 12.7268 6.01419 13.0351 6.01419H13.0343Z" fill="white"/>
</g>
<defs>
<clipPath id="clip0_571_77">
<rect width="20" height="20" fill="white"/>
</clipPath>
</defs>
</svg>
